<?xml version="1.0" encoding="utf-8"?>
<!-- Generator: Adobe Illustrator 17.0.2, SVG Export Plug-In . SVG Version: 6.00 Build 0)  -->
<!DOCTYPE svg PUBLIC "-//W3C//DTD SVG 1.1//EN" "http://www.w3.org/Graphics/SVG/1.1/DTD/svg11.dtd">
<svg version="1.1" id="Layer_1" xmlns="http://www.w3.org/2000/svg" xmlns:xlink="http://www.w3.org/1999/xlink" x="0px" y="0px"
	 width="60.967px" height="94.382px" viewBox="0 0 60.967 94.382" enable-background="new 0 0 60.967 94.382" xml:space="preserve">
<g>
	<g>
		<path fill="#00708E" d="M51.058,43.73c-0.596-1.457-1.412-2.802-2.405-3.995c-0.178,0.611-0.326,1.233-0.441,1.865
			c0.164,1.097,0.251,2.219,0.251,3.361c0.002,1.141-0.085,2.265-0.249,3.362c0.354,1.938,1.012,3.769,1.919,5.447
			c0.04-0.032,0.078-0.064,0.117-0.099c0.702-2.017,1.167-4.151,1.362-6.358C51.509,46.093,51.323,44.896,51.058,43.73z"/>
		<path fill="#0088B7" d="M60.798,27.267c-0.997,0.321-1.96,0.724-2.873,1.199c-0.331,0.173-0.656,0.355-0.974,0.546
			c-0.319,0.191-0.631,0.392-0.937,0.602c-0.904,0.618-1.751,1.314-2.531,2.078c-1.3,1.273-2.413,2.736-3.295,4.343
			c2.95,2.909,4.951,6.775,5.498,11.094c0.018,0.139,0.034,0.279,0.048,0.42c1.18-1.741,2.186-3.611,2.991-5.586
			c0.242-1.532,0.67-3.005,1.257-4.393c0.099-0.233,0.203-0.464,0.31-0.692c0,0.002-0.001,0.003-0.001,0.005
			c0.001-0.002,0.002-0.004,0.002-0.005c0.34-1.593,0.556-3.23,0.636-4.907c0.023-0.497,0.037-0.997,0.037-1.499
			C60.967,29.389,60.907,28.319,60.798,27.267z"/>
		<path fill="#00B7EB" d="M59.983,37.568c-0.587,1.389-1.015,2.861-1.257,4.393c0.544-1.331,0.994-2.715,1.347-4.136
			c0.077-0.31,0.15-0.627,0.219-0.944C60.185,37.108,60.082,37.337,59.983,37.568z"/>
		<path fill="#008585" d="M59.516,21.178c-1.758,1.328-3.364,2.845-4.789,4.523c-0.129,0.151-0.256,0.305-0.382,0.459
			c-0.154,0.189-0.306,0.38-0.455,0.573l0,0c0,0,0,0,0,0c0,0,0,0,0,0.001c-1.809,2.333-3.279,4.943-4.335,7.753
			c0.214,0.497,0.414,1.002,0.598,1.513c0.019,0.051,0.022,0.061,0.022,0.061h0.001c0.882-1.607,2.009-3.095,3.309-4.368
			c0.78-0.764,1.627-1.46,2.531-2.078c0.306-0.21,0.618-0.41,0.937-0.602c0.319-0.191,0.643-0.373,0.974-0.546
			c0.913-0.475,1.876-0.877,2.873-1.199C60.576,25.166,60.142,23.13,59.516,21.178z"/>
		<linearGradient id="SVGID_1_" gradientUnits="userSpaceOnUse" x1="33.0917" y1="33.4292" x2="55.1362" y2="26.8428">
			<stop  offset="0" style="stop-color:#FFFFFF"/>
			<stop  offset="1" style="stop-color:#00817D"/>
		</linearGradient>
		<path fill="url(#SVGID_1_)" d="M59.187,20.205c-0.06-0.163-0.12-0.328-0.181-0.489c-0.107,0.029-0.216,0.061-0.323,0.093
			c-0.007,0.002-0.014,0.004-0.021,0.006c0,0,0,0,0,0c0,0,0,0,0,0c-2.707,0.797-5.233,2.018-7.5,3.587
			c-0.068,0.048-0.139,0.099-0.208,0.149c0,0,0,0-0.001,0c-1.698,1.199-3.247,2.598-4.614,4.158c0.09,0.507,0.156,1.022,0.198,1.544
			c1.194,1.616,2.21,3.369,3.017,5.235c1.056-2.81,2.525-5.42,4.335-7.753l-0.004-0.005c0.001,0.002,0.003,0.003,0.005,0.005
			c0.149-0.193,0.302-0.384,0.456-0.572c0.126-0.155,0.253-0.308,0.382-0.46c0,0,0,0,0,0c1.425-1.678,3.031-3.195,4.789-4.523
			C59.413,20.851,59.302,20.528,59.187,20.205z"/>
		<linearGradient id="SVGID_2_" gradientUnits="userSpaceOnUse" x1="31.8865" y1="29.3936" x2="53.9304" y2="22.8073">
			<stop  offset="0" style="stop-color:#FFFFFF"/>
			<stop  offset="1" style="stop-color:#00AEBF"/>
		</linearGradient>
		<path fill="url(#SVGID_2_)" d="M50.331,22.965c-0.478-0.439-0.965-0.863-1.466-1.276c-0.117,0.143-0.231,0.287-0.345,0.431
			c0,0,0,0-0.001,0c0,0,0,0,0,0c-0.947,1.197-1.822,2.455-2.617,3.764c0.18,0.594,0.327,1.203,0.438,1.824
			c1.367-1.559,2.916-2.958,4.614-4.158C50.748,23.352,50.541,23.155,50.331,22.965z"/>
		<linearGradient id="SVGID_3_" gradientUnits="userSpaceOnUse" x1="34.7599" y1="39.0145" x2="56.8055" y2="32.4278">
			<stop  offset="0" style="stop-color:#FFFFFF"/>
			<stop  offset="1" style="stop-color:#006A6C"/>
		</linearGradient>
		<path fill="url(#SVGID_3_)" d="M46.3,33.608c0.884,1.15,1.675,2.376,2.36,3.667c0.187-0.699,0.399-1.39,0.633-2.068
			c-0.899-0.78-1.873-1.478-2.909-2.081C46.359,33.288,46.331,33.449,46.3,33.608z"/>
		<g>
			<g>
				<linearGradient id="SVGID_4_" gradientUnits="userSpaceOnUse" x1="33.9767" y1="36.3934" x2="56.0223" y2="29.8067">
					<stop  offset="0" style="stop-color:#FFFFFF"/>
					<stop  offset="1" style="stop-color:#006E7A"/>
				</linearGradient>
				<path fill="url(#SVGID_4_)" d="M46.537,29.251c0.035,0.43,0.053,0.865,0.053,1.304c0,0.875-0.071,1.734-0.205,2.572
					c1.036,0.603,2.01,1.3,2.909,2.079c0.084-0.242,0.17-0.482,0.261-0.72C48.747,32.62,47.732,30.867,46.537,29.251z"/>
			</g>
		</g>
		<linearGradient id="SVGID_5_" gradientUnits="userSpaceOnUse" x1="35.0722" y1="40.0574" x2="57.1166" y2="33.471">
			<stop  offset="0" style="stop-color:#FFFFFF"/>
			<stop  offset="1" style="stop-color:#006A5C"/>
		</linearGradient>
		<path fill="url(#SVGID_5_)" d="M46.3,33.608c-0.077,0.402-0.169,0.799-0.275,1.19c-0.184,0.675-0.409,1.332-0.675,1.968
			c0.776,0.517,1.501,1.102,2.168,1.745c0.239,0.233,0.471,0.47,0.695,0.714c0.128-0.657,0.278-1.309,0.448-1.95
			C47.975,35.985,47.184,34.758,46.3,33.608z"/>
		<path fill="#00AECE" d="M54.37,17.098c-0.214-0.115-0.429-0.229-0.645-0.34c-1.769,1.489-3.395,3.139-4.859,4.931
			c0.502,0.412,0.989,0.837,1.466,1.276c0.21,0.19,0.417,0.387,0.622,0.585c0.07-0.05,0.141-0.1,0.209-0.148
			c2.267-1.569,4.793-2.79,7.5-3.587C57.298,18.813,55.866,17.905,54.37,17.098z"/>
		<path fill="#00B1BD" d="M58.662,19.814c0.007-0.002,0.014-0.004,0.021-0.006c0.107-0.032,0.216-0.064,0.323-0.093
			c-0.675-1.781-1.509-3.484-2.491-5.088c-0.964,0.665-1.896,1.377-2.791,2.13c0.216,0.111,0.431,0.225,0.645,0.34
			C55.866,17.905,57.298,18.813,58.662,19.814z"/>
		<path fill="#00BDD8" d="M48.865,21.689c1.464-1.791,3.09-3.442,4.859-4.931c-1.975-1.017-4.053-1.861-6.213-2.512
			c-1.644,1.017-3.201,2.164-4.657,3.423C44.996,18.808,47.008,20.158,48.865,21.689z"/>
		<linearGradient id="SVGID_6_" gradientUnits="userSpaceOnUse" x1="30.7601" y1="25.6268" x2="52.8051" y2="19.0403">
			<stop  offset="0" style="stop-color:#FFFFFF"/>
			<stop  offset="1" style="stop-color:#00B8D4"/>
		</linearGradient>
		<path fill="url(#SVGID_6_)" d="M48.865,21.689c-1.857-1.531-3.869-2.88-6.01-4.02c-0.322,0.278-0.637,0.565-0.95,0.856
			c1.959,1.862,3.462,4.198,4.329,6.823c0.705-1.117,1.468-2.196,2.285-3.228c-0.028-0.012-0.057-0.023-0.085-0.034
			c0.028,0.01,0.057,0.021,0.085,0.034C48.633,21.975,48.748,21.832,48.865,21.689z"/>
		<linearGradient id="SVGID_7_" gradientUnits="userSpaceOnUse" x1="28.5543" y1="18.2422" x2="50.5989" y2="11.6558">
			<stop  offset="0" style="stop-color:#FFFFFF"/>
			<stop  offset="1" style="stop-color:#00BFE8"/>
		</linearGradient>
		<path fill="url(#SVGID_7_)" d="M42.454,17.459c-4.15-2.143-8.771-3.509-13.663-3.9c-0.355,0.08-0.706,0.162-1.057,0.25
			c0.363,0.23,0.722,0.469,1.077,0.71c0.152,0.103,0.305,0.206,0.456,0.312c0.383-0.029,0.772-0.043,1.162-0.043h0.009
			c4.2,0,8.016,1.648,10.836,4.329c0.092-0.089,0.185-0.178,0.278-0.267c0.425-0.404,0.858-0.8,1.301-1.183
			C42.722,17.598,42.588,17.528,42.454,17.459z"/>
		<path fill="#30C3ED" d="M36.821,12.682c-2.757,0.002-5.446,0.304-8.029,0.878c4.892,0.391,9.513,1.757,13.663,3.9
			c0.134,0.069,0.267,0.139,0.4,0.21c1.456-1.259,3.013-2.406,4.657-3.423c-3.379-1.017-6.962-1.564-10.675-1.564H36.821z"/>
		<path fill="#84C99B" d="M39.66,1.416c-5.067,3.076-9.553,7.005-13.259,11.592c0.262,0.149,0.523,0.303,0.78,0.458l0,0
			c0.185,0.114,0.371,0.23,0.555,0.344c0.351-0.088,0.701-0.171,1.057-0.25c2.583-0.574,5.272-0.876,8.029-0.878h0.015
			c3.713,0,7.296,0.547,10.675,1.564c2.034-1.258,4.203-2.319,6.478-3.158C50.288,6.612,45.333,3.211,39.66,1.416z"/>
		<path fill="#C3DE9A" d="M26.401,13.008c3.707-4.587,8.192-8.516,13.259-11.592C36.749,0.495,33.647,0,30.431,0h-0.008
			C22.391,0.004,15.086,3.104,9.639,8.166c5.703,0.243,11.073,1.778,15.821,4.321C25.776,12.656,26.09,12.83,26.401,13.008z"/>
		<path fill="#CCE5C5" d="M25.46,12.486C20.711,9.943,15.342,8.409,9.639,8.166C5.248,12.25,2.061,17.608,0.674,23.65
			c6.507-6.312,15.388-10.201,25.177-10.206h0.018h0.182c0.05-0.064,0.102-0.128,0.153-0.193c0.065-0.082,0.131-0.163,0.196-0.243
			C26.09,12.83,25.776,12.656,25.46,12.486z"/>
		<path fill="#F1F9FA" d="M27.18,13.466L27.18,13.466L27.18,13.466c-0.257-0.154-0.517-0.308-0.779-0.458
			c-0.065,0.08-0.131,0.161-0.196,0.243c-0.051,0.064-0.103,0.129-0.153,0.193c-0.288,0.367-0.571,0.733-0.849,1.107
			c0.831-0.274,1.674-0.522,2.532-0.74C27.551,13.696,27.365,13.579,27.18,13.466z"/>
		<path fill="#EFF7F3" d="M12.905,21.479c3.574-3.042,7.739-5.417,12.298-6.929c0.277-0.374,0.56-0.74,0.849-1.107h0h-0.182h-0.018
			c-9.789,0.005-18.67,3.894-25.177,10.206c-0.307,1.346-0.527,2.724-0.651,4.13c2.022-0.944,4.237-1.54,6.571-1.716
			c0.116-0.114,0.233-0.226,0.351-0.338C8.718,24.051,10.722,22.619,12.905,21.479z"/>
		<path fill="#CCDDEB" d="M19.035,19.196c-0.234,0.055-0.467,0.113-0.699,0.174c-1.903,0.505-3.722,1.218-5.431,2.109
			c-2.183,1.14-4.187,2.572-5.96,4.246c-0.118,0.112-0.235,0.224-0.351,0.338c0.214-0.017,0.429-0.029,0.645-0.038
			c0.264-0.011,0.53-0.017,0.797-0.019h0.008c0.128,0,0.254,0.002,0.381,0.005c0.186,0.004,0.372,0.01,0.556,0.019
			c1.294,0.063,2.553,0.255,3.767,0.563c0.448-0.249,0.905-0.483,1.369-0.706c0.372-0.232,0.751-0.45,1.138-0.66
			c0.151-0.082,0.302-0.163,0.456-0.242c0.852-2.274,2.218-4.3,3.957-5.933C19.455,19.098,19.245,19.146,19.035,19.196z"/>
		<path fill="#C3E4D8" d="M0.023,27.78C0.015,27.862,0.007,27.95,0,28.032c1.044,0.75,2.031,1.572,2.954,2.461
			c1.052-1.606,2.272-3.091,3.639-4.429C4.26,26.239,2.045,26.837,0.023,27.78z"/>
		<path fill="#30C3ED" d="M8.981,26.031c-0.185-0.009-0.37-0.015-0.556-0.019c-0.127-0.002-0.253-0.005-0.381-0.005H8.036
			c-0.267,0.001-0.532,0.008-0.797,0.019c-0.216,0.009-0.432,0.021-0.645,0.038c-1.367,1.339-2.588,2.824-3.639,4.429
			c0.492,0.476,0.969,0.97,1.424,1.484c0.271,0.301,0.531,0.611,0.786,0.924c0.131-0.159,0.264-0.317,0.399-0.473
			c2.024-2.342,4.453-4.323,7.183-5.833C11.533,26.286,10.274,26.094,8.981,26.031z"/>
		<path fill="#136B7B" d="M12.966,26.652c-0.072-0.02-0.146-0.039-0.218-0.057c-2.73,1.51-5.159,3.491-7.184,5.833
			c-0.135,0.156-0.268,0.314-0.399,0.473c0.349,0.434,0.685,0.875,1.009,1.329c0.008,0.011,0.017,0.022,0.025,0.034
			C7.845,31.239,10.17,28.634,12.966,26.652z"/>
		<path fill="#065E78" d="M11.332,37.93c0.912-1.137,1.957-2.163,3.109-3.059c-0.369-1.376-0.568-2.822-0.568-4.315
			c0-1.205,0.13-2.379,0.373-3.512c-0.42-0.145-0.846-0.277-1.28-0.393c0,0,0,0-0.001,0c0,0,0,0-0.001,0
			c-2.796,1.983-5.12,4.587-6.768,7.613c0.132,0.187,0.262,0.375,0.39,0.565c0.894,1.332,1.669,2.749,2.313,4.239
			c0.084,0.195,0.166,0.391,0.245,0.589c0.132,0.325,0.258,0.654,0.376,0.985c0.514-0.941,1.107-1.832,1.77-2.664
			c0.003-0.004,0.006-0.008,0.01-0.013C11.312,37.953,11.322,37.942,11.332,37.93z"/>
		<path fill="#1E9EB7" d="M4.378,31.977c-0.455-0.514-0.932-1.009-1.424-1.484c-0.658,1.005-1.249,2.058-1.768,3.149
			c0.552,0.549,1.074,1.125,1.568,1.728c0.113,0.141,0.227,0.282,0.339,0.425c0.626-1.012,1.317-1.979,2.071-2.895
			C4.909,32.589,4.649,32.278,4.378,31.977z"/>
		<path fill="#105C74" d="M6.173,34.231c-0.324-0.454-0.66-0.896-1.009-1.329c-0.754,0.916-1.445,1.883-2.071,2.895
			c0.269,0.345,0.527,0.699,0.776,1.06c0.002,0.003,0.004,0.005,0.006,0.008c0.006,0.009,0.012,0.019,0.019,0.028
			c0.243,0.355,0.477,0.717,0.7,1.087c0.424-1.294,0.963-2.536,1.604-3.715C6.189,34.253,6.181,34.242,6.173,34.231z"/>
		<path fill="#1C5273" d="M9.146,39.657c-0.08-0.198-0.161-0.394-0.245-0.589c0,0,0,0,0,0c0,0,0,0,0,0
			c-0.643-1.49-1.418-2.907-2.312-4.239c-0.128-0.19-0.258-0.379-0.39-0.565l0,0c0,0,0,0,0,0c-0.641,1.179-1.18,2.42-1.604,3.715
			c1.291,2.139,2.234,4.508,2.755,7.032c0,0,0,0.001,0,0.001l0,0v0c0.079,0.386,0.149,0.777,0.208,1.171
			c0.293-1.604,0.791-3.136,1.468-4.567c0.156-0.33,0.322-0.655,0.497-0.974C9.403,40.311,9.278,39.983,9.146,39.657z"/>
		<path fill="#0087B9" d="M2.754,35.37c-0.494-0.604-1.016-1.179-1.568-1.728C1.103,33.82,1.019,34,0.939,34.182
			c0.426,0.928,0.817,1.877,1.169,2.847C2.31,36.47,2.525,35.918,2.754,35.37z"/>
		<path fill="#006AA1" d="M2.754,35.37c-0.23,0.548-0.444,1.099-0.646,1.659c0.035,0.1,0.071,0.201,0.107,0.3
			c0.274-0.521,0.569-1.034,0.878-1.533C2.981,35.653,2.868,35.511,2.754,35.37z"/>
		<path fill="#1E516F" d="M3.874,36.864c-0.002-0.003-0.004-0.005-0.006-0.008c-0.249-0.361-0.507-0.715-0.776-1.06
			c-0.309,0.5-0.603,1.013-0.878,1.533c0.588,1.668,1.057,3.386,1.401,5.153c0.172-1.555,0.504-3.06,0.978-4.503
			c-0.223-0.37-0.457-0.732-0.7-1.087C3.887,36.883,3.881,36.873,3.874,36.864z"/>
		<path fill="#4694CB" d="M2.108,37.029c-0.352-0.97-0.743-1.918-1.169-2.847c-0.215,0.477-0.416,0.962-0.6,1.457
			c0.219,1.285,0.519,2.543,0.895,3.769c0.105-0.255,0.215-0.509,0.331-0.757c0.205-0.447,0.421-0.887,0.65-1.322
			C2.179,37.23,2.144,37.13,2.108,37.029z"/>
		<path fill="#4E8ABC" d="M2.215,37.329c-0.229,0.435-0.446,0.875-0.65,1.322c-0.116,0.248-0.226,0.502-0.331,0.757
			c0.017,0.06,0.037,0.12,0.055,0.18c0,0,0,0,0,0c0,0,0,0,0,0c0.57,1.82,1.307,3.568,2.19,5.223
			c0.007-0.787,0.054-1.565,0.137-2.329C3.272,40.715,2.803,38.997,2.215,37.329z"/>
		<path fill="#156AA7" d="M3.616,42.482c-0.083,0.764-0.129,1.542-0.137,2.329c0.206,0.387,0.421,0.766,0.644,1.142
			c-0.037-0.375-0.08-0.749-0.128-1.121C3.894,44.041,3.768,43.257,3.616,42.482z"/>
		<path fill="#25496F" d="M7.557,46.185C7.557,46.185,7.557,46.185,7.557,46.185C7.557,46.185,7.557,46.185,7.557,46.185
			c-0.059-0.394-0.129-0.786-0.208-1.172v0c0,0,0,0,0,0c-0.521-2.526-1.464-4.894-2.755-7.033c0,0,0,0,0,0c0,0,0,0,0,0
			c-0.474,1.442-0.805,2.948-0.978,4.502c0.152,0.775,0.278,1.559,0.38,2.35c0.048,0.372,0.091,0.746,0.128,1.122c0,0,0,0,0-0.001
			c0,0,0,0,0,0.001c0.851,1.441,1.819,2.804,2.889,4.081c0.086,0.105,0.172,0.204,0.261,0.307c-0.012-0.264-0.017-0.529-0.017-0.798
			C7.254,48.399,7.359,47.274,7.557,46.185z"/>
		<path fill="#005E9E" d="M11.332,37.93c-0.01,0.012-0.02,0.023-0.029,0.035c-0.003,0.004-0.006,0.008-0.01,0.013
			c-0.663,0.833-1.257,1.724-1.77,2.665c0.621,1.737,1.067,3.56,1.314,5.444c0.148,1.131,0.225,2.284,0.226,3.455
			c0,1.437-0.115,2.848-0.335,4.223c1.83,1.544,3.845,2.879,6.008,3.965c-0.216-0.829-0.41-1.673-0.585-2.521
			c-0.382-1.868-0.663-3.773-0.834-5.708c-0.593-1.389-0.92-2.916-0.92-4.522c-0.003-1.605,0.324-3.133,0.915-4.52
			c0.074-0.85,0.17-1.694,0.286-2.532c-0.481-0.969-0.87-1.991-1.156-3.056C13.289,35.767,12.244,36.793,11.332,37.93z"/>
		<path fill="#095296" d="M10.836,46.087c-0.247-1.885-0.692-3.707-1.314-5.444c-0.175,0.319-0.341,0.644-0.497,0.974
			c-0.677,1.431-1.175,2.963-1.468,4.568c0.166,1.097,0.253,2.218,0.253,3.359c0,0.457-0.013,0.912-0.04,1.36
			c0.92,1.02,1.908,1.974,2.957,2.861c0.22-1.375,0.335-2.787,0.335-4.225C11.061,48.37,10.984,47.217,10.836,46.087z"/>
		<path fill="#1B4891" d="M7.557,46.185c-0.198,1.089-0.302,2.214-0.301,3.359c0,0.269,0.005,0.534,0.017,0.798
			c0.162,0.19,0.328,0.378,0.496,0.562c0.027-0.448,0.04-0.904,0.04-1.36C7.81,48.403,7.723,47.282,7.557,46.185z"/>
		<path fill="#1D8EBD" d="M15.311,40.458c-0.591,1.388-0.918,2.915-0.915,4.52c0,1.606,0.328,3.133,0.92,4.522
			c-0.133-1.492-0.2-3.001-0.202-4.528C15.114,43.451,15.181,41.945,15.311,40.458z"/>
		<linearGradient id="SVGID_8_" gradientUnits="userSpaceOnUse" x1="18.1264" y1="42.2625" x2="14.6315" y2="51.134">
			<stop  offset="0" style="stop-color:#80DEF4"/>
			<stop  offset="1" style="stop-color:#00BCE9"/>
		</linearGradient>
		<path fill="url(#SVGID_8_)" d="M16.676,38.079C16.676,38.079,16.676,38.079,16.676,38.079c-0.312-0.562-0.59-1.148-0.833-1.749
			c-0.042,0.246-0.082,0.493-0.12,0.74c-0.174,1.118-0.312,2.248-0.412,3.389c-0.13,1.487-0.197,2.993-0.197,4.514
			c0.002,1.527,0.069,3.037,0.202,4.528c0.674,1.582,1.692,2.983,2.961,4.11c-0.287-1.313-0.439-2.672-0.439-4.071
			c-0.001-1.413,0.154-2.79,0.447-4.116c0.247-1.119,0.593-2.201,1.029-3.236c0.061-0.145,0.123-0.289,0.188-0.431
			C18.388,40.681,17.433,39.442,16.676,38.079z"/>
		<path fill="#00ABE1" d="M18.277,53.611c-1.269-1.127-2.287-2.528-2.961-4.11c0.171,1.935,0.452,3.84,0.834,5.708
			c1.01,0.889,2.152,1.633,3.394,2.193c-0.093-0.203-0.181-0.409-0.267-0.616C18.855,55.768,18.518,54.708,18.277,53.611z"/>
		<linearGradient id="SVGID_9_" gradientUnits="userSpaceOnUse" x1="23.091" y1="44.2183" x2="19.5962" y2="53.0896">
			<stop  offset="0" style="stop-color:#AFE4EF"/>
			<stop  offset="1" style="stop-color:#60C9DF"/>
		</linearGradient>
		<path fill="url(#SVGID_9_)" d="M21.479,49.536c-0.002-1.773,0.302-3.477,0.856-5.063c0.052-0.148,0.105-0.296,0.161-0.442
			c-1.088-0.637-2.094-1.4-2.995-2.274c-0.064,0.143-0.127,0.286-0.188,0.431c-0.436,1.035-0.781,2.117-1.029,3.236
			c-0.293,1.326-0.448,2.703-0.447,4.116c0,1.399,0.152,2.758,0.439,4.071c0.166,0.147,0.336,0.29,0.511,0.428
			c1.221,0.964,2.642,1.69,4.189,2.103C22.018,54.143,21.481,51.902,21.479,49.536z"/>
		<linearGradient id="SVGID_10_" gradientUnits="userSpaceOnUse" x1="25.2571" y1="45.0715" x2="21.7623" y2="53.9429">
			<stop  offset="0" style="stop-color:#E1F3F4"/>
			<stop  offset="1" style="stop-color:#9AD7D9"/>
		</linearGradient>
		<path fill="url(#SVGID_10_)" d="M22.496,44.031c-0.056,0.146-0.109,0.294-0.161,0.442c-0.554,1.586-0.857,3.29-0.856,5.063
			c0.002,2.366,0.539,4.607,1.498,6.607c0.055,0.117,0.114,0.233,0.172,0.349c0.065-0.085,0.13-0.171,0.192-0.258
			c0.087-0.118,0.172-0.237,0.257-0.357c0.019-0.027,0.037-0.053,0.055-0.08c0.635-0.912,1.191-1.883,1.66-2.902
			c0.316-0.686,0.593-1.392,0.827-2.119c0.281-0.874,0.5-1.776,0.652-2.702c0.003-0.016,0.006-0.032,0.008-0.048
			c0.012-0.076,0.024-0.152,0.035-0.228c0.006-0.037,0.011-0.074,0.016-0.111c0.01-0.067,0.019-0.134,0.027-0.2
			c0.006-0.047,0.012-0.095,0.018-0.143c0.008-0.061,0.015-0.122,0.022-0.183c0.006-0.055,0.012-0.11,0.018-0.165
			c0.006-0.056,0.012-0.111,0.017-0.167c0.006-0.063,0.012-0.125,0.017-0.188c0.004-0.05,0.009-0.099,0.013-0.149
			c0.005-0.065,0.009-0.13,0.014-0.195C26.999,46.29,27,46.281,27,46.272c0.003-0.04,0.006-0.079,0.008-0.119
			c0.007-0.115,0.013-0.229,0.018-0.345C25.409,45.45,23.884,44.843,22.496,44.031z"/>
		<path fill="#00B8E1" d="M22.976,56.142c-1.547-0.413-2.968-1.139-4.189-2.103c-0.174-0.138-0.345-0.281-0.511-0.428
			c0.241,1.097,0.579,2.157,1,3.175c0.086,0.207,0.174,0.413,0.267,0.616h0l0,0c0.691,0.312,1.413,0.57,2.16,0.766
			c0.514-0.532,0.996-1.091,1.446-1.677C23.09,56.375,23.032,56.259,22.976,56.142z"/>
		<path fill="#D7EFF5" d="M26.05,60.446c-0.581-0.573-1.119-1.195-1.603-1.852c-0.486-0.663-0.922-1.366-1.298-2.103
			c-0.45,0.586-0.932,1.145-1.445,1.677h0h0c-0.375,0.386-0.765,0.755-1.17,1.11c0.011,0.019,0.023,0.039,0.037,0.059
			c1.839,0.629,3.755,1.085,5.732,1.352C26.217,60.609,26.133,60.528,26.05,60.446z"/>
		<path fill="#E7F4F5" d="M30.957,51.462c-0.076-0.417-0.145-0.837-0.207-1.259c-0.101-0.69-0.181-1.386-0.242-2.089
			c-0.041-0.478-0.074-0.958-0.097-1.44c-0.008-0.158-0.014-0.317-0.019-0.476c0-0.007-0.001-0.014-0.001-0.021
			c-1.155-0.002-2.282-0.13-3.364-0.369c-0.005,0.115-0.011,0.23-0.018,0.345c-0.002,0.04-0.005,0.079-0.008,0.119
			c-0.001,0.009-0.001,0.018-0.002,0.027c-0.004,0.065-0.009,0.13-0.014,0.195c-0.004,0.05-0.008,0.099-0.013,0.149
			c-0.005,0.063-0.011,0.125-0.017,0.188c-0.005,0.056-0.011,0.111-0.017,0.167c-0.006,0.055-0.012,0.11-0.018,0.165
			c-0.007,0.061-0.014,0.122-0.022,0.183c-0.006,0.048-0.012,0.095-0.018,0.143c-0.009,0.067-0.018,0.134-0.027,0.2
			c-0.005,0.037-0.011,0.074-0.016,0.111c-0.011,0.076-0.023,0.152-0.035,0.228c-0.003,0.016-0.005,0.032-0.008,0.048
			c-0.152,0.925-0.371,1.827-0.651,2.701c-0.233,0.726-0.509,1.432-0.824,2.117c-0.47,1.02-1.027,1.991-1.663,2.903
			c-0.018,0.027-0.037,0.053-0.055,0.08c-0.084,0.12-0.17,0.239-0.257,0.357c0.848,0.197,1.731,0.299,2.637,0.299
			c0.135,0,0.269-0.002,0.403-0.007c0.029-0.001,0.058-0.003,0.087-0.005c0.105-0.004,0.21-0.009,0.314-0.016
			c0.026-0.002,0.051-0.005,0.077-0.006c0.108-0.008,0.216-0.017,0.323-0.028c0.019-0.002,0.038-0.005,0.058-0.007
			c0.114-0.012,0.227-0.026,0.34-0.041c0.012-0.002,0.024-0.004,0.036-0.005c0.12-0.017,0.239-0.036,0.358-0.056
			c0.006-0.001,0.012-0.002,0.018-0.003c0.124-0.022,0.248-0.045,0.37-0.071c0.003,0,0.005-0.001,0.008-0.001
			c0.126-0.027,0.251-0.055,0.375-0.086l0.005-0.001c0.124-0.031,0.248-0.063,0.37-0.098c0.001,0,0.003-0.001,0.004-0.001
			c0.009-0.003,0.017-0.005,0.026-0.008c0.092-0.026,0.185-0.053,0.276-0.082c0,0,0.001,0,0.002,0
			c0.019-0.006,0.038-0.012,0.058-0.019c0.148-0.047,0.294-0.097,0.439-0.149c0.045-0.016,0.091-0.032,0.135-0.049
			c0.059-0.022,0.117-0.045,0.175-0.068c0.051-0.02,0.102-0.04,0.152-0.061c0.054-0.022,0.109-0.046,0.163-0.069
			c0.054-0.023,0.109-0.047,0.163-0.071c0.05-0.022,0.1-0.045,0.15-0.068c0.059-0.027,0.118-0.056,0.176-0.084
			c0.044-0.022,0.089-0.043,0.134-0.065c0.067-0.034,0.133-0.068,0.199-0.103c0.036-0.019,0.071-0.037,0.107-0.056
			c0.102-0.055,0.202-0.111,0.302-0.169C31.449,53.827,31.174,52.654,30.957,51.462z"/>
		<path fill="#DEF1F6" d="M38.83,44.519c-0.002-0.058-0.005-0.116-0.007-0.174c-0.008-0.181-0.018-0.362-0.033-0.541
			c-0.406,0.253-0.822,0.487-1.248,0.701c-0.49,0.247-0.993,0.469-1.505,0.663c-0.711,0.273-1.443,0.492-2.187,0.656l-0.001,0.001
			c0,0,0-0.001,0-0.001c-0.31,0.07-0.623,0.128-0.938,0.18c-0.111,0.175-0.22,0.353-0.327,0.532
			c-0.231,0.384-0.453,0.775-0.666,1.173c-0.438,0.819-0.826,1.652-1.168,2.494c0.061,0.422,0.131,0.842,0.207,1.259
			c0.217,1.192,0.492,2.364,0.824,3.513c0.068,0.235,0.14,0.469,0.212,0.702c0.071,0.226,0.143,0.451,0.218,0.676
			c0.029,0.087,0.056,0.176,0.086,0.264c0.123-0.075,0.244-0.152,0.365-0.23c3.724-2.438,6.182-6.642,6.179-11.423
			C38.84,44.815,38.835,44.667,38.83,44.519z"/>
		<path fill="#E1F3FC" d="M31.781,54.976c-0.1,0.058-0.201,0.114-0.302,0.169c-0.035,0.019-0.071,0.037-0.107,0.056
			c-0.066,0.035-0.132,0.07-0.199,0.103c-0.044,0.022-0.089,0.044-0.134,0.065c-0.059,0.028-0.117,0.057-0.176,0.084
			c-0.05,0.023-0.1,0.046-0.15,0.068c-0.054,0.024-0.109,0.048-0.163,0.071c-0.054,0.023-0.108,0.047-0.163,0.069
			c-0.051,0.021-0.101,0.041-0.152,0.061c-0.058,0.023-0.117,0.046-0.175,0.068c-0.045,0.017-0.09,0.033-0.135,0.049
			c-0.145,0.053-0.291,0.103-0.439,0.149c-0.019,0.006-0.038,0.013-0.058,0.019c-0.001,0-0.001,0-0.002,0
			c-0.092,0.029-0.184,0.055-0.276,0.082c-0.009,0.003-0.017,0.005-0.026,0.008c-0.001,0-0.003,0-0.004,0.001
			c-0.122,0.034-0.246,0.067-0.37,0.098c-0.002,0-0.003,0.001-0.005,0.001c-0.124,0.03-0.249,0.059-0.375,0.086
			c-0.003,0-0.005,0.001-0.008,0.001c-0.123,0.026-0.246,0.049-0.37,0.071c-0.006,0.001-0.012,0.002-0.018,0.003
			c-0.119,0.021-0.238,0.039-0.358,0.056c-0.012,0.002-0.024,0.004-0.036,0.005c-0.113,0.016-0.226,0.029-0.34,0.041
			c-0.019,0.002-0.038,0.005-0.058,0.007c-0.107,0.011-0.215,0.02-0.323,0.028c-0.026,0.002-0.051,0.005-0.077,0.006
			c-0.104,0.007-0.209,0.012-0.314,0.016c-0.029,0.001-0.058,0.004-0.087,0.005c-0.134,0.005-0.268,0.007-0.403,0.007
			c-0.906,0-1.789-0.103-2.637-0.299c-0.063,0.087-0.127,0.173-0.192,0.258c0.376,0.736,0.812,1.439,1.298,2.103c0,0,0,0,0,0l0,0
			c0.242,0.012,0.485,0.018,0.728,0.018h0.01c2.604,0,5.04-0.731,7.111-1.994c-0.106-0.312-0.206-0.626-0.304-0.94
			C31.92,55.445,31.849,55.211,31.781,54.976z"/>
		<path fill="#D9F0FC" d="M25.186,58.611h-0.01c-0.243,0-0.487-0.006-0.728-0.018c0.484,0.658,1.022,1.279,1.603,1.852
			c0.083,0.082,0.167,0.163,0.252,0.243c1.355,0.183,2.735,0.278,4.137,0.278h0.008c1.206-0.001,2.392-0.071,3.562-0.208
			c-0.653-1.336-1.226-2.72-1.713-4.142C30.226,57.88,27.79,58.611,25.186,58.611z"/>
		<path fill="#CDD6DD" d="M40.63,43.07c-0.242,0.196-0.489,0.386-0.742,0.569c-0.022,0.44-0.034,0.882-0.034,1.326
			c0.003,3.884,0.851,7.571,2.368,10.885c-1.064-3.44-1.637-7.096-1.64-10.885C40.583,44.329,40.599,43.698,40.63,43.07z"/>
		<path fill="#C9CDCF" d="M44.407,38.659c-0.54,0.927-1.17,1.794-1.877,2.591c-0.583,0.657-1.218,1.265-1.9,1.819
			c-0.031,0.628-0.048,1.26-0.048,1.894c0.003,3.79,0.577,7.446,1.64,10.885c0.12,0.261,0.246,0.519,0.374,0.775
			c0.085,0.171,0.171,0.342,0.26,0.511c0,0,0,0,0,0c0,0,0,0.001,0,0.001s0.024,0.043,0.023,0.043
			c0.044-0.113,0.101-0.294,0.156-0.458c0.574-1.704,1.026-3.462,1.347-5.269c0.372-2.105,0.565-4.273,0.565-6.489
			C44.947,42.813,44.762,40.709,44.407,38.659z"/>
		<path fill="#115E6A" d="M48.215,48.324c-0.199-1.09-0.306-2.215-0.306-3.362c0-1.147,0.104-2.27,0.304-3.361
			c-0.06-0.393-0.13-0.783-0.21-1.169c-0.134-0.652-0.296-1.29-0.485-1.919c-0.667-0.644-1.392-1.229-2.168-1.746
			c-0.273,0.654-0.588,1.286-0.942,1.893c0.355,2.05,0.54,4.154,0.541,6.305c0,2.216-0.193,4.384-0.565,6.489
			c-0.321,1.807-0.773,3.565-1.347,5.269c-0.05,0.153-0.102,0.307-0.156,0.458c0.162,0.309,0.332,0.613,0.507,0.915
			c0.432-0.202,0.86-0.415,1.282-0.637c1.593-2.374,2.744-5.064,3.336-7.961c-0.005-0.034-0.009-0.069-0.014-0.103
			c0.005,0.035,0.01,0.069,0.015,0.103C48.087,49.109,48.155,48.717,48.215,48.324z"/>
		<path fill="#006F95" d="M51.058,43.73c0.259,0.628,0.475,1.277,0.647,1.944c0.007-0.238,0.009-0.474,0.009-0.713
			c0-3.123-0.543-6.118-1.539-8.902c-0.387,0.708-0.727,1.439-1.02,2.196C49.982,39.984,50.624,41.818,51.058,43.73z"/>
		<path fill="#005E85" d="M48.212,41.601c-0.2,1.091-0.303,2.214-0.303,3.361c0,1.147,0.106,2.272,0.305,3.362
			c0.163-1.097,0.251-2.221,0.249-3.362C48.464,43.82,48.377,42.698,48.212,41.601z"/>
		<path fill="#0E6A64" d="M47.517,38.512c0.19,0.63,0.352,1.268,0.485,1.92c0.061-0.403,0.131-0.807,0.21-1.205
			C47.989,38.982,47.756,38.744,47.517,38.512z"/>
		<path fill="#006F71" d="M48.213,39.226L48.213,39.226c-0.079,0.398-0.149,0.802-0.21,1.206c0.08,0.386,0.15,0.776,0.21,1.169
			c0.115-0.633,0.263-1.255,0.441-1.865C48.51,39.562,48.363,39.393,48.213,39.226C48.212,39.226,48.213,39.226,48.213,39.226z"/>
		<path fill="#006E7A" d="M50.154,36.001c-0.001-0.001-0.002-0.001-0.003-0.002c0,0,0,0,0.001,0
			c-0.184-0.512-0.384-1.016-0.598-1.513c-0.09,0.238-0.177,0.478-0.261,0.72l0,0.002c-0.234,0.678-0.446,1.368-0.633,2.067
			c0.172,0.323,0.338,0.65,0.495,0.98c0.293-0.758,0.632-1.488,1.02-2.196C50.168,36.04,50.16,36.021,50.154,36.001z"/>
		<path fill="#006E65" d="M48.66,37.276c-0.169,0.641-0.319,1.293-0.447,1.951c0.15,0.167,0.298,0.336,0.44,0.509
			c0.147-0.503,0.315-0.997,0.502-1.48C48.998,37.926,48.833,37.599,48.66,37.276z"/>
		<path fill="#006E7C" d="M48.653,39.735c0.993,1.193,1.81,2.539,2.405,3.995c-0.434-1.913-1.077-3.745-1.903-5.475
			C48.968,38.738,48.8,39.233,48.653,39.735z"/>
		<path fill="#00709F" d="M51.614,47.314c0.047-0.543,0.079-1.089,0.092-1.64c-0.172-0.667-0.388-1.316-0.647-1.944
			C51.323,44.896,51.509,46.093,51.614,47.314z"/>
		<path fill="#D4EDF3" d="M42.597,56.625c-0.128-0.256-0.254-0.514-0.374-0.775c-1.517-3.314-2.366-7.001-2.368-10.885
			c0-0.443,0.012-0.886,0.034-1.326c-0.319,0.23-0.647,0.449-0.983,0.656c-0.025,0.073-0.049,0.147-0.073,0.221
			c0.005,0.15,0.008,0.299,0.008,0.45c0.004,4.78-2.455,8.984-6.179,11.423c-0.12,0.078-0.242,0.155-0.365,0.23
			c0.487,1.422,1.06,2.806,1.713,4.142c2.826-0.327,5.534-1.044,8.07-2.089c0.236-0.419,0.458-0.844,0.66-1.278
			c0.041-0.085,0.078-0.171,0.117-0.256C42.769,56.967,42.683,56.796,42.597,56.625z"/>
		<path fill="#008B9D" d="M50.189,36.035c-0.005,0.008-0.01,0.017-0.013,0.025c0,0,0,0,0,0c0,0,0,0,0,0
			c0.997,2.784,1.539,5.779,1.539,8.902c0,0.239-0.001,0.474-0.009,0.713c-0.013,0.551-0.045,1.097-0.092,1.64
			c-0.195,2.207-0.66,4.34-1.362,6.358c0.441-0.376,0.869-0.761,1.288-1.163c0.15-0.141,0.299-0.287,0.445-0.434
			c1.39-1.384,2.648-2.898,3.751-4.527C55.268,43.061,53.234,39.039,50.189,36.035z"/>
	</g>
	<g>
		<g>
			<path fill="#4D4D4D" d="M14.92,73.191h0.721l-3.706-8.569h-0.274l-3.706,8.569h0.721l1.256-2.96h3.731L14.92,73.191z
				 M10.17,69.66l1.629-3.855l1.63,3.855H10.17z"/>
			<path fill="#4D4D4D" d="M18.059,73.303c0.771,0,1.405-0.323,1.94-0.982v0.871h0.622v-5.609h-0.622v3.98
				c-0.472,0.784-1.106,1.168-1.877,1.168c-0.971,0-1.431-0.658-1.431-2.001v-3.147h-0.622v3.445
				C16.069,72.495,16.791,73.303,18.059,73.303z"/>
			<path fill="#4D4D4D" d="M25.214,71.711c0-0.858-0.485-1.218-1.48-1.566c-0.932-0.323-1.392-0.597-1.392-1.156
				c0-0.56,0.472-0.958,1.144-0.958c0.485,0,1.007,0.187,1.567,0.547v-0.646c-0.534-0.311-1.032-0.474-1.53-0.474
				c-1.045,0-1.778,0.634-1.778,1.543c0,0.709,0.41,1.219,1.244,1.542c0.932,0.374,1.578,0.449,1.578,1.231
				c0,0.596-0.435,0.957-1.155,0.957c-0.572,0-1.119-0.185-1.679-0.558v0.646c0.523,0.335,1.045,0.498,1.629,0.498
				C24.53,73.315,25.214,72.694,25.214,71.711z"/>
			<path fill="#4D4D4D" d="M26.744,71.798c0,1.058,0.298,1.505,1.269,1.505c0.336,0,0.671-0.075,1.019-0.236v-0.609
				c-0.348,0.186-0.646,0.286-0.932,0.286c-0.611,0-0.71-0.273-0.71-0.933v-3.707h1.505v-0.522h-1.505v-1.827h-0.15l-0.472,0.546
				v1.281H25.55v0.522h1.194V71.798z"/>
			<path fill="#4D4D4D" d="M30.365,69.647c0.608-1.02,1.105-1.543,1.641-1.543c0.273,0,0.547,0.138,0.871,0.398l0.336-0.597
				c-0.324-0.273-0.635-0.422-0.995-0.422c-0.671,0-1.206,0.498-1.852,1.48v-1.381h-0.622v5.609h0.622V69.647z"/>
			<path fill="#4D4D4D" d="M33.454,71.873c0,0.846,0.621,1.443,1.555,1.443c0.621,0,1.132-0.223,1.717-0.672
				c0.024,0.461,0.174,0.659,0.534,0.659c0.237,0,0.548-0.174,0.909-0.51v-0.571c-0.299,0.261-0.46,0.436-0.635,0.436
				c-0.136,0-0.198-0.112-0.198-0.361V69.36c0-1.306-0.51-1.903-1.828-1.903c-0.586,0-1.157,0.212-1.766,0.622v0.609
				c0.609-0.447,1.144-0.684,1.716-0.684c0.883,0,1.256,0.373,1.256,1.206v0.598C34.574,69.896,33.454,70.654,33.454,71.873z
				 M36.713,72.06c-0.56,0.472-1.045,0.721-1.53,0.721c-0.684,0-1.094-0.36-1.094-0.932c0-0.871,0.933-1.518,2.624-1.543V72.06z"/>
			<rect x="38.948" y="64.697" fill="#4D4D4D" width="0.635" height="8.494"/>
			<rect x="41.014" y="67.582" fill="#4D4D4D" width="0.634" height="5.609"/>
			<rect x="41.014" y="64.697" fill="#4D4D4D" width="0.634" height="1.032"/>
			<path fill="#4D4D4D" d="M42.675,71.873c0,0.846,0.621,1.443,1.554,1.443c0.622,0,1.132-0.223,1.716-0.672
				c0.025,0.461,0.174,0.659,0.535,0.659c0.236,0,0.547-0.174,0.908-0.51v-0.571c-0.299,0.261-0.46,0.436-0.635,0.436
				c-0.138,0-0.2-0.112-0.2-0.361V69.36c0-1.306-0.51-1.903-1.828-1.903c-0.584,0-1.157,0.212-1.766,0.622v0.609
				c0.609-0.447,1.144-0.684,1.716-0.684c0.885,0,1.257,0.373,1.257,1.206v0.598C43.793,69.896,42.675,70.654,42.675,71.873z
				 M45.933,72.06c-0.56,0.472-1.046,0.721-1.53,0.721c-0.684,0-1.095-0.36-1.095-0.932c0-0.871,0.933-1.518,2.625-1.543V72.06z"/>
			<path fill="#4D4D4D" d="M52.079,70.07v3.121h0.622v-3.42c0-1.468-0.722-2.289-1.99-2.289c-0.772,0-1.406,0.336-1.94,0.995v-0.896
				H48.15v5.609h0.623v-3.955c0.472-0.784,1.107-1.182,1.878-1.182C51.619,68.055,52.079,68.726,52.079,70.07z"/>
		</g>
		<g>
			<path fill="#0087B1" d="M20.659,79.384c0-1.406-0.634-2.686-1.692-3.47c-0.796-0.585-1.704-0.771-2.885-0.771h-2.947v8.493h2.947
				c1.194,0,2.114-0.21,2.885-0.783C20.025,82.07,20.659,80.789,20.659,79.384z M18.396,82.468
				c-0.609,0.411-1.417,0.572-2.487,0.572h-2.052v-7.287h2.052c1.07,0,1.878,0.162,2.487,0.572c0.945,0.635,1.517,1.779,1.517,3.072
				C19.913,80.689,19.341,81.834,18.396,82.468z"/>
			<rect x="22.003" y="75.143" fill="#0087B1" width="0.635" height="1.032"/>
			<rect x="22.003" y="78.028" fill="#0087B1" width="0.635" height="5.608"/>
			<path fill="#0087B1" d="M23.664,82.319c0,0.846,0.621,1.443,1.554,1.443c0.621,0,1.132-0.223,1.716-0.671
				c0.025,0.46,0.174,0.659,0.535,0.659c0.236,0,0.547-0.174,0.908-0.511v-0.572c-0.299,0.261-0.46,0.436-0.634,0.436
				c-0.137,0-0.2-0.113-0.2-0.361v-2.935c0-1.306-0.509-1.904-1.828-1.904c-0.584,0-1.157,0.212-1.766,0.622v0.61
				c0.609-0.447,1.144-0.685,1.717-0.685c0.883,0,1.256,0.373,1.256,1.206v0.598C24.782,80.342,23.664,81.1,23.664,82.319z
				 M26.922,82.505c-0.559,0.472-1.044,0.722-1.529,0.722c-0.685,0-1.095-0.362-1.095-0.933c0-0.871,0.932-1.517,2.624-1.542V82.505
				z"/>
			<path fill="#0087B1" d="M34.102,80.665c0-1.643-1.007-2.774-2.386-2.774c-0.771,0-1.381,0.274-1.978,0.859v-3.607h-0.596v8.17
				c0.67,0.286,1.281,0.436,1.891,0.436C32.847,83.749,34.102,82.505,34.102,80.665z M29.738,79.47
				c0.522-0.671,1.108-0.994,1.766-0.994c1.07,0,1.89,0.896,1.89,2.227c0,1.442-0.945,2.424-2.288,2.424
				c-0.559,0-1.02-0.15-1.368-0.448V79.47z"/>
			<path fill="#0087B1" d="M39.902,80.628v-0.026c0-1.641-0.994-2.686-2.424-2.686c-1.556,0-2.612,1.12-2.612,2.824
				c0,1.828,1.106,3.021,2.785,3.021c0.747,0,1.43-0.249,2.139-0.746v-0.684c-0.721,0.548-1.381,0.821-2.151,0.821
				c-1.219,0-2.115-0.959-2.115-2.463v-0.062H39.902z M37.427,78.451c0.895,0,1.605,0.634,1.741,1.642h-3.568
				C35.748,79.098,36.519,78.451,37.427,78.451z"/>
			<path fill="#0087B1" d="M41.226,82.245c0,1.057,0.299,1.505,1.268,1.505c0.336,0,0.672-0.076,1.02-0.237v-0.609
				c-0.348,0.186-0.647,0.286-0.933,0.286c-0.609,0-0.708-0.274-0.708-0.933V78.55h1.504v-0.522h-1.504V76.2h-0.15l-0.472,0.547
				v1.28h-1.218v0.522h1.193V82.245z"/>
			<path fill="#0087B1" d="M48.636,83.016v-0.684c-0.721,0.548-1.38,0.821-2.151,0.821c-1.218,0-2.114-0.959-2.114-2.463v-0.062
				h4.377v-0.026c0-1.641-0.995-2.686-2.425-2.686c-1.554,0-2.612,1.12-2.612,2.824c0,1.828,1.108,3.021,2.786,3.021
				C47.243,83.761,47.927,83.513,48.636,83.016z M46.274,78.451c0.894,0,1.603,0.634,1.74,1.642h-3.569
				C44.594,79.098,45.366,78.451,46.274,78.451z"/>
			<path fill="#0087B1" d="M53.012,82.158c0-0.858-0.485-1.22-1.48-1.568c-0.933-0.323-1.393-0.597-1.393-1.156
				c0-0.559,0.471-0.958,1.145-0.958c0.485,0,1.007,0.186,1.567,0.547v-0.647c-0.535-0.31-1.033-0.473-1.53-0.473
				c-1.044,0-1.779,0.635-1.779,1.543c0,0.708,0.411,1.219,1.244,1.542c0.933,0.374,1.579,0.447,1.579,1.231
				c0,0.597-0.435,0.958-1.156,0.958c-0.573,0-1.12-0.187-1.679-0.561v0.647c0.522,0.335,1.044,0.497,1.629,0.497
				C52.328,83.761,53.012,83.139,53.012,82.158z"/>
		</g>
		<path fill="#0087B1" d="M20.696,86.882c-0.833,0.809-1.306,1.928-1.306,3.072c0,1.505,0.722,2.861,1.965,3.669
			c0.759,0.497,1.642,0.759,2.625,0.759c0.982,0,1.964-0.262,2.973-0.784v-0.72c-1.107,0.585-2.078,0.896-2.997,0.896
			c-1.082,0-2.052-0.399-2.736-1.107c-0.684-0.708-1.081-1.679-1.081-2.686c0-1.293,0.61-2.438,1.666-3.146
			c0.622-0.411,1.343-0.634,2.152-0.634c0.933,0,1.902,0.311,2.997,0.895v-0.708c-1.032-0.522-2.015-0.796-2.973-0.796
			C22.698,85.589,21.567,86.037,20.696,86.882z"/>
		<path fill="#0087B1" d="M30.372,88.499c-1.641,0-2.924,1.306-2.924,2.922c0,1.642,1.294,2.923,2.924,2.923
			c0.783,0,1.492-0.286,2.052-0.845c0.547-0.548,0.87-1.306,0.87-2.077C33.294,89.793,31.988,88.499,30.372,88.499z M30.372,93.772
			c-1.22,0-2.239-1.02-2.239-2.338c0-1.318,0.994-2.35,2.239-2.35c1.231,0,2.225,1.032,2.225,2.35
			C32.598,92.741,31.603,93.772,30.372,93.772z"/>
		<path fill="#0087B1" d="M37.998,92.603c-0.472,0.784-1.106,1.169-1.877,1.169c-0.97,0-1.43-0.659-1.43-2.003v-3.146h-0.622v3.445
			c0,1.468,0.722,2.276,1.99,2.276c0.771,0,1.405-0.323,1.939-0.983v0.872h0.623v-5.609h-0.623V92.603z"/>
		<path fill="#0087B1" d="M41.956,88.525c-0.771,0-1.405,0.335-1.94,0.994v-0.896h-0.621v5.609h0.621v-3.955
			c0.474-0.784,1.107-1.182,1.878-1.182c0.971,0,1.43,0.671,1.43,2.014v3.122h0.621v-3.42
			C43.945,89.345,43.225,88.525,41.956,88.525z"/>
		<path fill="#0087B1" d="M45.439,91.434c0-1.318,0.994-2.35,2.237-2.35c0.486,0,0.908,0.112,1.343,0.361v-0.697
			c-0.41-0.162-0.82-0.248-1.256-0.248c-1.766,0-3.01,1.306-3.01,2.922c0,1.704,1.232,2.923,2.96,2.923
			c0.498,0,0.958-0.112,1.418-0.335v-0.697c-0.51,0.311-0.996,0.461-1.456,0.461C46.433,93.772,45.439,92.765,45.439,91.434z"/>
		<g>
			<rect x="49.938" y="85.738" fill="#0087B1" width="0.634" height="1.032"/>
			<rect x="49.938" y="88.623" fill="#0087B1" width="0.634" height="5.609"/>
		</g>
		<rect x="52.005" y="85.738" fill="#0087B1" width="0.635" height="8.495"/>
	</g>
</g>
</svg>
